<svg xmlns="http://www.w3.org/2000/svg" xmlns:xlink="http://www.w3.org/1999/xlink" width="323.254" height="109.72" viewBox="0 0 323.254 109.72">
  <defs>
    <clipPath id="clip-path">
      <rect id="Rectangle_16316" data-name="Rectangle 16316" width="323.254" height="109.72" fill="#c6aa76"/>
    </clipPath>
  </defs>
  <g id="Logo" transform="translate(0 0)">
    <path id="Path_127060" data-name="Path 127060" d="M962.45,162.967l-17.836-17.836,20.094-20.094v-.709h-2.3l-19.3,19.3,0,0,0,0-19.3-19.3h-2.3v.709L941.6,145.131l-17.836,17.836.461.882-3.1,3.1.957.958,21.023-21.022,21.022,21.022.957-.958-3.1-3.1Z" transform="translate(-674.723 -91.065)" fill="#c6aa76"/>
    <path id="Path_127061" data-name="Path 127061" d="M965.749,50.21V48.3L945.42,68.624h-2.541L922.549,48.3V50.21l21.6,21.6Z" transform="translate(-675.764 -35.382)" fill="#c6aa76"/>
    <path id="Path_127062" data-name="Path 127062" d="M949.067,298.046l-4.916-4.916h0l-4.916,4.916,1.108.227-17.79,17.789v1.915l21.6-21.6,21.6,21.6v-1.915L947.96,298.273Z" transform="translate(-675.764 -214.714)" fill="#c6aa76"/>
    <path id="Path_127063" data-name="Path 127063" d="M965.749,26.063V24.148l-21.6,21.6-21.6-21.6v1.915l21.6,21.6Z" transform="translate(-675.764 -17.692)" fill="#c6aa76"/>
    <path id="Path_127064" data-name="Path 127064" d="M965.749,74.358V72.443L951.876,86.316h-1.338L944.151,92.7l0,0,0,0-6.387-6.386h-1.339L922.549,72.443v1.915l21.6,21.6Z" transform="translate(-675.764 -53.065)" fill="#c6aa76"/>
    <path id="Path_127065" data-name="Path 127065" d="M953.816,278.617l-9.664-9.665,0,0,0,0-9.664,9.665.912.43L922.55,291.893v1.915l21.6-21.6,21.6,21.6v-1.915L952.9,279.048Z" transform="translate(-675.764 -197.001)" fill="#c6aa76"/>
    <path id="Path_127066" data-name="Path 127066" d="M957.741,258.393,944.152,244.8l0,0,0,0-13.589,13.59.757.586-8.765,8.766v1.915l21.6-21.6h0l21.6,21.6v-1.915l-8.765-8.766Z" transform="translate(-675.765 -179.318)" fill="#c6aa76"/>
    <path id="Path_127067" data-name="Path 127067" d="M1037.619,158.216l-12.963-12.962,20.926-20.926h-1.915l-5.5,5.5v-1.338L1021.4,145.255l.672.673h0l21.625,21.626h1.915l-8.271-8.271Z" transform="translate(-748.186 -91.066)" fill="#c6aa76"/>
    <path id="Path_127068" data-name="Path 127068" d="M965.749,0l-21.6,21.6L922.549,0V1.915l21.6,21.6,21.6-21.6Z" transform="translate(-675.764 0)" fill="#c6aa76"/>
    <path id="Path_127069" data-name="Path 127069" d="M960.919,237.529l-16.767-16.873,0,0,0,0-16.767,16.873.568.67-5.4,5.4v1.915l21.6-21.6,21.6,21.6V243.6l-5.4-5.4Z" transform="translate(-675.765 -161.63)" fill="#c6aa76"/>
    <path id="Path_127070" data-name="Path 127070" d="M1142.086,124.329l-21.6,21.6,21.63,21.63h1.915l-21.63-21.63,21.6-21.6Z" transform="translate(-820.779 -91.066)" fill="#c6aa76"/>
    <path id="Path_127071" data-name="Path 127071" d="M1073.552,145.926v-.07l-.6-.6,20.926-20.926h-1.915l-18.409,18.409V141.4l-3.856,3.856.672.673h0l21.627,21.626h1.915L1073.552,147.2Z" transform="translate(-783.567 -91.066)" fill="#c6aa76"/>
    <path id="Path_127072" data-name="Path 127072" d="M1055.861,152.311l-7.058-7.058,20.926-20.927h-1.915l-11.953,11.953v-1.338l-10.313,10.313.673.673h0l21.626,21.626h1.916l-13.9-13.9Z" transform="translate(-765.876 -91.065)" fill="#c6aa76"/>
    <path id="Path_127073" data-name="Path 127073" d="M1119.855,124.328h-1.914l-21.6,21.6,21.63,21.63h1.915l-21.629-21.63Z" transform="translate(-803.09 -91.065)" fill="#c6aa76"/>
    <path id="Path_127074" data-name="Path 127074" d="M944.15,120.1l15.9-15.9,5.7-5.7V96.591l-7.416,7.416h-1.338L944.152,116.85l0,0,0,0L931.3,104.007h-1.338l-7.416-7.416v1.915l5.7,5.7Z" transform="translate(-675.765 -70.753)" fill="#c6aa76"/>
    <path id="Path_127075" data-name="Path 127075" d="M918.25,145.928l.673-.673-16.769-16.769v1.338l-5.5-5.5h-1.915l20.926,20.926-12.962,12.963.275,1.068-8.272,8.271h1.915l21.626-21.626Z" transform="translate(-655.392 -91.066)" fill="#c6aa76"/>
    <path id="Path_127076" data-name="Path 127076" d="M922.55,343.863v1.915l21.6-21.6,21.6,21.6v-1.915l-21.6-21.6Z" transform="translate(-675.765 -236.058)" fill="#c6aa76"/>
    <path id="Path_127077" data-name="Path 127077" d="M800.066,124.328h-1.915l21.6,21.6-21.63,21.63h1.915l21.63-21.63Z" transform="translate(-584.637 -91.065)" fill="#c6aa76"/>
    <path id="Path_127078" data-name="Path 127078" d="M869.956,145.928l.673-.673-3.857-3.856v1.338l-18.41-18.409h-1.914l20.926,20.926-.6.6V147.2l-20.356,20.356h1.915l21.626-21.626Z" transform="translate(-620.016 -91.066)" fill="#c6aa76"/>
    <path id="Path_127079" data-name="Path 127079" d="M894.1,145.928l.673-.673-10.313-10.313v1.338l-11.953-11.953h-1.915l20.926,20.926-7.058,7.058,0,1.341-13.9,13.9h1.915L894.1,145.93Z" transform="translate(-637.703 -91.066)" fill="#c6aa76"/>
    <path id="Path_127080" data-name="Path 127080" d="M824.215,124.328H822.3l21.6,21.6-21.63,21.63h1.915l21.63-21.63Z" transform="translate(-602.327 -91.065)" fill="#c6aa76"/>
    <path id="Path_127081" data-name="Path 127081" d="M8.092,196.945v9.166l-6.637-9.166H0V208.5H1.5v-9.165l6.573,9.106.043.059H9.593v-11.55Z" transform="translate(0 -144.265)" fill="#c6aa76"/>
    <path id="Path_127082" data-name="Path 127082" d="M50.3,196.945,45.444,208.5h1.548l1.327-3.154H53.5l1.261,3.154H56.33l-4.66-11.55Zm2.843,7.5H48.676l2.285-5.485Z" transform="translate(-33.294 -144.265)" fill="#c6aa76"/>
    <rect id="Rectangle_16311" data-name="Rectangle 16311" width="1.523" height="11.551" transform="translate(25.597 52.68)" fill="#c6aa76"/>
    <path id="Path_127083" data-name="Path 127083" d="M123.532,201.97h-5.285v-4.132h5.677v-.892h-7.2V208.5h1.523v-5.633h5.285Z" transform="translate(-85.514 -144.265)" fill="#c6aa76"/>
    <path id="Path_127084" data-name="Path 127084" d="M172.073,196.945l-4.861,11.55h1.548l1.327-3.154h5.182l1.261,3.154H178.1l-4.66-11.55Zm2.843,7.5h-4.472l2.285-5.485Z" transform="translate(-122.504 -144.265)" fill="#c6aa76"/>
    <g id="Group_60757" data-name="Group 60757" transform="translate(0 0)">
      <g id="Group_60756" data-name="Group 60756" clip-path="url(#clip-path)">
        <path id="Path_127085" data-name="Path 127085" d="M219.006,202.864h1.322l3.286,5.614h1.612l-3.295-5.651c1.838-.16,2.885-1.188,2.885-2.847,0-3-3.565-3.036-3.6-3.036H217.5V208.5h1.5Zm0-5.027h1.838a2.235,2.235,0,0,1,2.491,2.143c0,1.34-.794,1.991-2.426,1.991h-1.9Z" transform="translate(-159.328 -144.268)" fill="#c6aa76"/>
        <path id="Path_127086" data-name="Path 127086" d="M256.669,196.945,251.806,208.5h1.548l1.327-3.155h5.184l1.262,3.155H262.7l-4.662-11.555Zm2.844,7.507h-4.473l2.286-5.487Z" transform="translate(-184.455 -144.268)" fill="#c6aa76"/>
        <path id="Path_127087" data-name="Path 127087" d="M307.931,202.361a2.705,2.705,0,0,0,1.5-2.532c0-1.833-1.312-2.884-3.6-2.884H302.1V208.5h4.1c1.8,0,3.732-.849,3.732-3.232a2.977,2.977,0,0,0-2-2.907m-2.71-4.523c1.32,0,2.73.54,2.73,2.056,0,1.413-1.37,2.056-2.644,2.056H303.6v-4.112Zm-1.621,5h2.1a2.625,2.625,0,0,1,2.752,2.469c0,2.032-2.046,2.252-2.926,2.252H303.6Z" transform="translate(-221.295 -144.268)" fill="#c6aa76"/>
        <path id="Path_127088" data-name="Path 127088" d="M365.288,208.717a4.3,4.3,0,0,0,4.624-4.646v-7.126h-1.524v7.061c0,2.5-1.072,3.818-3.1,3.818s-3.1-1.321-3.1-3.818v-7.061h-1.524v7.126a4.3,4.3,0,0,0,4.624,4.646" transform="translate(-264.196 -144.268)" fill="#c6aa76"/>
        <path id="Path_127089" data-name="Path 127089" d="M411.947,199.331l6.575,9.11.043.059h1.476V196.944h-1.5v9.169l-6.64-9.169h-1.455V208.5h1.5Z" transform="translate(-300.661 -144.267)" fill="#c6aa76"/>
        <rect id="Rectangle_16312" data-name="Rectangle 16312" width="1.524" height="11.555" transform="translate(123.468 52.677)" fill="#c6aa76"/>
        <path id="Path_127090" data-name="Path 127090" d="M481.864,206.27l-3.383-9.325h-1.564l4.216,11.555h1.46l4.283-11.555H485.31Z" transform="translate(-349.354 -144.267)" fill="#c6aa76"/>
        <path id="Path_127091" data-name="Path 127091" d="M531.244,207.563H525.2v-4.7h5.483v-.893H525.2v-4.134h5.81v-.893h-7.334V208.5h7.573Z" transform="translate(-383.604 -144.267)" fill="#c6aa76"/>
        <path id="Path_127092" data-name="Path 127092" d="M570.776,208.478h1.612l-3.295-5.651c1.837-.16,2.885-1.188,2.885-2.847,0-3-3.565-3.036-3.6-3.036h-3.71V208.5h1.5v-5.635h1.322Zm-4.607-10.64h1.838a2.235,2.235,0,0,1,2.491,2.143c0,1.34-.793,1.991-2.426,1.991h-1.9Z" transform="translate(-413.634 -144.268)" fill="#c6aa76"/>
        <path id="Path_127093" data-name="Path 127093" d="M607.986,204.777c0-1.56-1.161-2.866-3.268-3.679-1.73-.668-2.607-1.421-2.607-2.239a2.177,2.177,0,0,1,2.339-2.1,2.684,2.684,0,0,1,1.979,1.035l.067.083,1.309-.545-.106-.146a4.171,4.171,0,0,0-3.291-1.3c-2.023,0-3.8,1.459-3.8,3.123,0,2.121,2.656,3.146,3.528,3.483,2.1.814,2.325,1.868,2.325,2.283a2.248,2.248,0,0,1-2.273,2.3,3.434,3.434,0,0,1-2.44-1.128l-.069-.077-1.313.575.122.146a5.282,5.282,0,0,0,3.655,1.356c2.9,0,3.841-2.133,3.841-3.166" transform="translate(-439.786 -143.493)" fill="#c6aa76"/>
        <rect id="Rectangle_16313" data-name="Rectangle 16313" width="1.524" height="11.555" transform="translate(171.244 52.677)" fill="#c6aa76"/>
        <path id="Path_127094" data-name="Path 127094" d="M658.544,208.5h1.524V197.9h3.59v-.958h-8.7v.958h3.59Z" transform="translate(-479.772 -144.268)" fill="#c6aa76"/>
        <path id="Path_127095" data-name="Path 127095" d="M694.4,208.5h1.48v-5.021l3.872-6.534h-1.636l-2.965,5.062-2.987-5.062H690.5l3.894,6.535Z" transform="translate(-505.813 -144.268)" fill="#c6aa76"/>
        <path id="Path_127096" data-name="Path 127096" d="M.921,278.66H2.445v-5.635H7.732v-.893H2.445V268H8.124v-.893H.921Z" transform="translate(-0.674 -195.662)" fill="#c6aa76"/>
        <path id="Path_127097" data-name="Path 127097" d="M39.9,266.049a6.028,6.028,0,1,0,6.038,6.016,6.034,6.034,0,0,0-6.038-6.016m0,11.162c-2.489,0-4.515-2.3-4.515-5.124s2.025-5.1,4.515-5.1a4.85,4.85,0,0,1,4.536,5.1c0,2.825-2.035,5.124-4.536,5.124" transform="translate(-24.806 -194.888)" fill="#c6aa76"/>
        <path id="Path_127098" data-name="Path 127098" d="M95.755,270.142c0-3-3.565-3.036-3.6-3.036h-3.71v11.555h1.5v-5.635h1.322l3.286,5.614h1.612l-3.295-5.651c1.838-.16,2.885-1.188,2.885-2.847M89.945,268h1.838a2.235,2.235,0,0,1,2.491,2.143c0,1.339-.794,1.991-2.426,1.991h-1.9Z" transform="translate(-64.787 -195.662)" fill="#c6aa76"/>
        <path id="Path_127099" data-name="Path 127099" d="M141.565,271.258c-1.73-.668-2.608-1.421-2.608-2.239a2.177,2.177,0,0,1,2.339-2.1,2.674,2.674,0,0,1,1.978,1.035l.067.084,1.309-.546-.106-.146a4.172,4.172,0,0,0-3.291-1.3c-2.023,0-3.8,1.459-3.8,3.123,0,2.121,2.656,3.146,3.529,3.483,2.1.814,2.325,1.868,2.325,2.283a2.249,2.249,0,0,1-2.273,2.3,3.434,3.434,0,0,1-2.44-1.128l-.068-.077-1.313.574.122.146a5.282,5.282,0,0,0,3.655,1.356c2.9,0,3.841-2.133,3.841-3.166,0-1.56-1.16-2.866-3.267-3.679" transform="translate(-100.513 -194.888)" fill="#c6aa76"/>
        <path id="Path_127100" data-name="Path 127100" d="M175.592,273.025h5.483v-.893h-5.483V268H181.4v-.893h-7.334V278.66h7.573v-.936h-6.049Z" transform="translate(-127.509 -195.662)" fill="#c6aa76"/>
        <path id="Path_127101" data-name="Path 127101" d="M218.062,276.472a4.514,4.514,0,0,1-3.109,1.513c-2.635,0-4.406-2.086-4.406-5.189,0-.2.05-4.8,4.406-4.8a3.656,3.656,0,0,1,2.837,1.243l.193.193,1.374-.467-.317-.356A5.407,5.407,0,0,0,215,267.1c-5.884,0-5.952,5.633-5.952,5.691,0,3.694,2.319,6.082,5.908,6.082a5.85,5.85,0,0,0,4.349-1.767l.321-.36-1.438-.442Z" transform="translate(-153.131 -195.662)" fill="#c6aa76"/>
        <path id="Path_127102" data-name="Path 127102" d="M263.459,274.166c0,2.5-1.072,3.818-3.1,3.818s-3.1-1.32-3.1-3.818V267.1h-1.524v7.126a4.624,4.624,0,1,0,9.248,0V267.1h-1.524Z" transform="translate(-187.332 -195.662)" fill="#c6aa76"/>
        <path id="Path_127103" data-name="Path 127103" d="M309.817,270.142c0-3-3.565-3.036-3.6-3.036h-3.71v11.555h1.5v-5.635h1.322l3.286,5.614h1.612l-3.295-5.651c1.838-.16,2.885-1.188,2.885-2.847M304.007,268h1.838a2.235,2.235,0,0,1,2.491,2.143c0,1.339-.794,1.991-2.426,1.991h-1.9Z" transform="translate(-221.593 -195.662)" fill="#c6aa76"/>
        <rect id="Rectangle_16314" data-name="Rectangle 16314" width="1.524" height="11.555" transform="translate(90.811 71.444)" fill="#c6aa76"/>
        <path id="Path_127104" data-name="Path 127104" d="M364.576,272.168l-2.986-5.062H351.228v.958h3.59v10.6h1.524v-10.6h3.59v-.957l3.893,6.534v5.02h1.48V273.64l3.872-6.534h-1.636Z" transform="translate(-257.284 -195.662)" fill="#c6aa76"/>
        <path id="Path_127105" data-name="Path 127105" d="M438.947,271.258c-1.73-.668-2.608-1.421-2.608-2.239a2.177,2.177,0,0,1,2.339-2.1,2.681,2.681,0,0,1,1.978,1.035l.067.083,1.309-.545-.106-.146a4.172,4.172,0,0,0-3.292-1.3c-2.023,0-3.8,1.459-3.8,3.123,0,2.121,2.656,3.146,3.529,3.483,2.1.814,2.325,1.868,2.325,2.283a2.248,2.248,0,0,1-2.273,2.3,3.434,3.434,0,0,1-2.44-1.128l-.068-.077-1.313.574.122.146a5.282,5.282,0,0,0,3.655,1.356c2.9,0,3.841-2.133,3.841-3.166,0-1.56-1.16-2.866-3.267-3.679" transform="translate(-318.353 -194.888)" fill="#c6aa76"/>
        <path id="Path_127106" data-name="Path 127106" d="M477.457,276.472a4.514,4.514,0,0,1-3.109,1.513c-2.635,0-4.406-2.086-4.406-5.189,0-.2.05-4.8,4.406-4.8a3.656,3.656,0,0,1,2.837,1.243l.193.193,1.374-.467-.317-.356a5.407,5.407,0,0,0-4.043-1.505c-5.884,0-5.951,5.633-5.951,5.691,0,3.694,2.319,6.082,5.908,6.082a5.85,5.85,0,0,0,4.349-1.767l.321-.36-1.438-.442Z" transform="translate(-343.146 -195.662)" fill="#c6aa76"/>
        <rect id="Rectangle_16315" data-name="Rectangle 16315" width="1.524" height="11.555" transform="translate(137.805 71.444)" fill="#c6aa76"/>
        <path id="Path_127107" data-name="Path 127107" d="M534.711,273.025h5.483v-.893h-5.483V268h5.81v-.893h-7.333V278.66h7.573v-.936h-6.049Z" transform="translate(-390.575 -195.662)" fill="#c6aa76"/>
        <path id="Path_127108" data-name="Path 127108" d="M579.268,276.275l-6.64-9.169h-1.455V278.66h1.5v-9.168l6.576,9.11.043.059h1.476V267.106h-1.5Z" transform="translate(-418.4 -195.662)" fill="#c6aa76"/>
        <path id="Path_127109" data-name="Path 127109" d="M625.333,276.472a4.514,4.514,0,0,1-3.109,1.513c-2.635,0-4.406-2.086-4.406-5.189,0-.2.05-4.8,4.406-4.8a3.656,3.656,0,0,1,2.837,1.243l.193.193,1.374-.467-.317-.356a5.408,5.408,0,0,0-4.043-1.505c-5.883,0-5.951,5.633-5.951,5.691,0,3.694,2.319,6.082,5.908,6.082a5.848,5.848,0,0,0,4.349-1.767l.321-.36-1.437-.442Z" transform="translate(-451.469 -195.662)" fill="#c6aa76"/>
        <path id="Path_127110" data-name="Path 127110" d="M664.611,273.025h5.484v-.893h-5.484V268h5.81v-.893h-7.334V278.66h7.573v-.936h-6.049Z" transform="translate(-485.73 -195.662)" fill="#c6aa76"/>
        <path id="Path_127111" data-name="Path 127111" d="M701.107,271.258c-1.73-.668-2.607-1.421-2.607-2.239a2.177,2.177,0,0,1,2.339-2.1,2.684,2.684,0,0,1,1.979,1.035l.067.083,1.309-.545-.106-.146a4.172,4.172,0,0,0-3.292-1.3c-2.023,0-3.8,1.459-3.8,3.123,0,2.121,2.656,3.146,3.528,3.483,2.1.814,2.325,1.868,2.325,2.283a2.249,2.249,0,0,1-2.274,2.3,3.434,3.434,0,0,1-2.44-1.128l-.068-.077-1.313.574.122.146a5.283,5.283,0,0,0,3.655,1.356c2.9,0,3.84-2.133,3.84-3.166,0-1.56-1.16-2.866-3.268-3.679" transform="translate(-510.393 -194.888)" fill="#c6aa76"/>
        <path id="Path_127112" data-name="Path 127112" d="M15.768,54.82a.88.88,0,0,0,.834-.9.9.9,0,0,0-.834-.92.919.919,0,0,0-.814.92.894.894,0,0,0,.814.9" transform="translate(-10.954 -38.825)" fill="#c6aa76"/>
        <path id="Path_127113" data-name="Path 127113" d="M5.31,54.82a.893.893,0,0,0,.813-.9A.919.919,0,0,0,5.31,53a.9.9,0,0,0-.834.92.88.88,0,0,0,.834.9" transform="translate(-3.279 -38.825)" fill="#c6aa76"/>
        <path id="Path_127114" data-name="Path 127114" d="M4.874,74.162a3.1,3.1,0,0,0,2.3-.92l.205-.208.174.235a2.243,2.243,0,0,0,1.885.893h7.032a2.56,2.56,0,0,0,1.4-.335L18,73.74l.135.083a2.536,2.536,0,0,0,1.382.338h3.518a2.305,2.305,0,0,0,2.348-2.313V66.314l-1.463.461v5.6a.911.911,0,0,1-.946.869H19.76a.889.889,0,0,1-.925-.869V66.313l-1.484.462v5.6a.9.9,0,0,1-.925.869H14.56v-.022H11.03a.4.4,0,0,0-.1.012l-.072.01H9.476a.954.954,0,0,1-.987-.935V66.164l-1.443.475v.479l-.386-.25A4.185,4.185,0,0,0,4.444,66.2h-.88c-2.11,0-3.37.963-3.37,2.578,0,2.675,1.608,5.383,4.68,5.383m-3.2-5.229a1.776,1.776,0,0,1,1.846-1.775h.061a3.4,3.4,0,0,1,3.442,3.255,2.489,2.489,0,0,1-.02.282,4.173,4.173,0,0,1-.523,1.589,1.8,1.8,0,0,1-1.589.964c-2.222,0-3.217-2.168-3.217-4.316" transform="translate(-0.142 -48.467)" fill="#c6aa76"/>
        <path id="Path_127115" data-name="Path 127115" d="M69.235,103.4a.894.894,0,0,0,.814.9.88.88,0,0,0,.834-.9.9.9,0,0,0-.834-.921.919.919,0,0,0-.814.921" transform="translate(-50.717 -75.069)" fill="#c6aa76"/>
        <path id="Path_127116" data-name="Path 127116" d="M58.758,103.4a.88.88,0,0,0,.834.9.894.894,0,0,0,.813-.9.919.919,0,0,0-.813-.921.9.9,0,0,0-.834.921" transform="translate(-43.042 -75.069)" fill="#c6aa76"/>
        <path id="Path_127117" data-name="Path 127117" d="M84.912,103.318a.817.817,0,1,0,1.627,0,.82.82,0,1,0-1.627,0" transform="translate(-62.2 -75.009)" fill="#c6aa76"/>
        <path id="Path_127118" data-name="Path 127118" d="M101.381,68.359h0a3.179,3.179,0,0,0,1.815-2.825l0-.3.29.034a2.14,2.14,0,0,0,.344.04H119.7a5.477,5.477,0,0,0,1.434-.208l.071-.024.072.019a6.2,6.2,0,0,0,1.615.213h13a2.131,2.131,0,0,0,2.164-2.092V54.081l-1.483.462v8.985a.889.889,0,0,1-.926.869H122.976l.558-.446a3.734,3.734,0,0,0,1.379-3.163c0-1.985-1.6-3.219-4.168-3.219-3.143,0-4.925,2.773-5.546,3.964l-.044.085h.1a4.332,4.332,0,0,1,3.546,1.666l.022.025c.08.1.148.183.229.285.1.122.2.252.313.389l.346.412-13.95-.022L104.1,64.4a.889.889,0,0,1-.905-.847V57.507l-1.463.461v7.814a2.251,2.251,0,0,1-1.21,1.962l-.913.528.449.665Zm18.635-5.736a4.526,4.526,0,0,0-2.645-1.857l-.348-.084.2-.3a4.419,4.419,0,0,1,3.522-1.9c2.649,0,2.726,2.069,2.726,2.305a3.1,3.1,0,0,1-1.852,3.16l-.127.067-.122-.075a5.686,5.686,0,0,1-1.353-1.317" transform="translate(-72.968 -39.616)" fill="#c6aa76"/>
        <path id="Path_127119" data-name="Path 127119" d="M255.691,54.085l-1.463.461V65.313h1.463Z" transform="translate(-186.229 -39.619)" fill="#c6aa76"/>
        <path id="Path_127120" data-name="Path 127120" d="M286.786,74.571h4.909a6.631,6.631,0,0,0,1.635-.191l.06-.016.06.014a6.923,6.923,0,0,0,1.294.193h7.389a2.305,2.305,0,0,0,2.348-2.313V66.722l-1.463.461v5.6a.911.911,0,0,1-.946.869h-6.558l.641-.454a4.488,4.488,0,0,0,1.96-3.861c0-1.169-.309-2.511-2.716-2.511-3.442,0-5.416,1.471-5.416,4.036a2.864,2.864,0,0,0,.974,2.349l.529.442h-4.556c-2.1,0-3.359-.862-3.359-2.305,0-2.466,2.341-3.595,4-3.608h.076l-.237-.911h-.047c-3.169.085-5.3,1.9-5.3,4.519a2.648,2.648,0,0,0,.768,1.952c1.217,1.211,3.538,1.267,3.954,1.267m5.036-2.26a2.7,2.7,0,0,1-.378-1.49c0-1.513,1.394-3.078,3.728-3.078.36,0,1.457,0,1.457,1.731a3.975,3.975,0,0,1-3.368,3.912l-.062.014-.061-.018a2.114,2.114,0,0,1-1.316-1.071" transform="translate(-206.62 -48.876)" fill="#c6aa76"/>
        <path id="Path_127121" data-name="Path 127121" d="M324.942,54.82a.871.871,0,0,0,.813-.9.82.82,0,1,0-1.627,0,.871.871,0,0,0,.813.9" transform="translate(-237.433 -38.825)" fill="#c6aa76"/>
        <path id="Path_127122" data-name="Path 127122" d="M360.855,103.4a.893.893,0,0,0,.813.9.88.88,0,0,0,.834-.9.9.9,0,0,0-.834-.921.919.919,0,0,0-.813.921" transform="translate(-264.336 -75.069)" fill="#c6aa76"/>
        <path id="Path_127123" data-name="Path 127123" d="M351.211,104.3a.894.894,0,0,0,.814-.9.919.919,0,0,0-.814-.92.9.9,0,0,0-.834.92.88.88,0,0,0,.834.9" transform="translate(-256.661 -75.069)" fill="#c6aa76"/>
        <path id="Path_127124" data-name="Path 127124" d="M378.849,65.313h13.416A2.305,2.305,0,0,0,394.613,63V57.465l-1.463.461v5.6a.911.911,0,0,1-.946.869h-13.13a.889.889,0,0,1-.926-.869V54.085l-1.463.461v8.676a2.131,2.131,0,0,0,2.164,2.092" transform="translate(-275.932 -39.619)" fill="#c6aa76"/>
        <path id="Path_127125" data-name="Path 127125" d="M436.682,54.737a.871.871,0,0,0,.813-.9.82.82,0,1,0-1.627,0,.871.871,0,0,0,.813.9" transform="translate(-319.286 -38.764)" fill="#c6aa76"/>
        <path id="Path_127126" data-name="Path 127126" d="M470.6,74.161a3.1,3.1,0,0,0,2.3-.92l.205-.209.174.235a2.243,2.243,0,0,0,1.886.893h12.628a5.48,5.48,0,0,0,1.433-.208l.071-.024.072.019a6.189,6.189,0,0,0,1.615.213h16.144a2.623,2.623,0,0,0,2.086-1.2l.171-.244.211.211a4.2,4.2,0,0,0,2.994,1.23,3.425,3.425,0,0,0,3.494-3.66c0-2.753-1.52-4.036-4.782-4.036a5.114,5.114,0,0,0-1.478.208l-.327.106v-.353l-1.463.477v5.541a.864.864,0,0,1-.946.8H491.068l.558-.446A3.734,3.734,0,0,0,493,69.639c0-1.985-1.6-3.218-4.168-3.218-3.149,0-4.928,2.772-5.546,3.964l-.044.086h.1a4.331,4.331,0,0,1,3.546,1.666l.022.024c.083.1.154.19.228.285l.011.014c.093.118.191.244.3.376l.346.411H475.205a.954.954,0,0,1-.987-.935V66.163l-1.443.476v.478l-.386-.251a4.188,4.188,0,0,0-2.216-.667h-.88c-2.11,0-3.371.963-3.371,2.577,0,2.676,1.608,5.384,4.68,5.384m-3.2-5.229a1.776,1.776,0,0,1,1.846-1.775h.061a3.4,3.4,0,0,1,3.441,3.255,2.462,2.462,0,0,1-.02.282c-.031.261-.356,2.553-2.112,2.553-2.222,0-3.217-2.167-3.217-4.315m22.177,3.933-.122-.075a5.682,5.682,0,0,1-1.354-1.317,4.527,4.527,0,0,0-2.645-1.857l-.348-.084.2-.3a4.419,4.419,0,0,1,3.522-1.9c2.649,0,2.726,2.069,2.726,2.305a3.1,3.1,0,0,1-1.851,3.16Zm24.779-1.031a1.768,1.768,0,0,1-1.753,1.413c-2.3,0-3.115-2.241-3.115-4.161a1.642,1.642,0,0,1,1.723-1.708c2.275,0,3.38,1,3.38,3.056a5.48,5.48,0,0,1-.236,1.4" transform="translate(-341.301 -48.466)" fill="#c6aa76"/>
        <path id="Path_127127" data-name="Path 127127" d="M471.039,54.82a.894.894,0,0,0,.813-.9.919.919,0,0,0-.813-.92.9.9,0,0,0-.834.92.88.88,0,0,0,.834.9" transform="translate(-344.438 -38.825)" fill="#c6aa76"/>
        <path id="Path_127128" data-name="Path 127128" d="M481.5,54.82a.88.88,0,0,0,.834-.9A.9.9,0,0,0,481.5,53a.919.919,0,0,0-.814.92.894.894,0,0,0,.814.9" transform="translate(-352.113 -38.825)" fill="#c6aa76"/>
        <path id="Path_127129" data-name="Path 127129" d="M666.435,65.313H680.5V64.4h-1c-1.1,0-1.61-1.194-2.2-2.577h0c-.845-1.992-1.8-4.25-4.718-4.25a4.387,4.387,0,0,0-2.684.91l-.054.042.852.814.041-.044a2.5,2.5,0,0,1,1.845-.831c1.414,0,2.07.96,2.85,2.849a10.621,10.621,0,0,0,1.417,2.68l.324.406H666.66a.889.889,0,0,1-.926-.869V54.085l-1.463.461v8.676a2.131,2.131,0,0,0,2.163,2.092" transform="translate(-486.597 -39.619)" fill="#c6aa76"/>
        <path id="Path_127130" data-name="Path 127130" d="M693.1,103.318a.817.817,0,1,0,1.627,0,.82.82,0,1,0-1.627,0" transform="translate(-507.716 -75.009)" fill="#c6aa76"/>
        <path id="Path_127131" data-name="Path 127131" d="M14.695,123a.955.955,0,0,0,.872.958.94.94,0,0,0,.893-.958.964.964,0,0,0-.893-.98.968.968,0,0,0-.872.98" transform="translate(-10.764 -89.384)" fill="#c6aa76"/>
        <path id="Path_127132" data-name="Path 127132" d="M4.217,123a.94.94,0,0,0,.893.958A.955.955,0,0,0,5.983,123a.968.968,0,0,0-.872-.98.964.964,0,0,0-.893.98" transform="translate(-3.089 -89.384)" fill="#c6aa76"/>
        <path id="Path_127133" data-name="Path 127133" d="M4.835,143.4a3.1,3.1,0,0,0,2.3-.92l.205-.209.174.235A2.244,2.244,0,0,0,9.4,143.4h13.56a2.55,2.55,0,0,0,1.4-.336l.133-.086.135.084A2.534,2.534,0,0,0,26,143.4H49.626a2.551,2.551,0,0,0,1.4-.336l.133-.086.135.084a2.535,2.535,0,0,0,1.382.338H66.4a2.624,2.624,0,0,0,2.087-1.2l.171-.244.211.211a4.2,4.2,0,0,0,2.994,1.23,3.425,3.425,0,0,0,3.493-3.66c0-2.753-1.52-4.036-4.782-4.036a5.115,5.115,0,0,0-1.478.208l-.327.106v-.353l-1.463.477v5.541a.864.864,0,0,1-.946.8H52.919a.889.889,0,0,1-.925-.869v-6.068l-1.483.463v5.6a.9.9,0,0,1-.925.869H26.25a.889.889,0,0,1-.926-.869v-6.068l-1.483.463v5.6a.9.9,0,0,1-.925.869H9.437a.954.954,0,0,1-.987-.935V135.4l-1.442.476v.479l-.386-.251a4.189,4.189,0,0,0-2.217-.667H3.526c-2.111,0-3.371.964-3.371,2.578,0,2.676,1.608,5.383,4.68,5.383m.02-.913c-2.222,0-3.216-2.168-3.216-4.316A1.776,1.776,0,0,1,3.485,136.4h.061a3.4,3.4,0,0,1,3.442,3.255c0,.562-.38,2.835-2.133,2.835m68.783-1.413a1.768,1.768,0,0,1-1.753,1.413c-2.3,0-3.114-2.241-3.114-4.161a1.641,1.641,0,0,1,1.723-1.708c2.275,0,3.38,1,3.38,3.056a5.468,5.468,0,0,1-.236,1.4" transform="translate(-0.114 -99.188)" fill="#c6aa76"/>
        <path id="Path_127134" data-name="Path 127134" d="M82.9,174.419a.939.939,0,0,0,.893.958.954.954,0,0,0,.873-.958.887.887,0,1,0-1.765,0" transform="translate(-60.729 -127.049)" fill="#c6aa76"/>
        <path id="Path_127135" data-name="Path 127135" d="M94.254,173.44a.968.968,0,0,0-.872.98.954.954,0,0,0,.872.957.939.939,0,0,0,.893-.957.964.964,0,0,0-.893-.98" transform="translate(-68.405 -127.05)" fill="#c6aa76"/>
        <path id="Path_127136" data-name="Path 127136" d="M187.891,122.919a.876.876,0,1,0,1.745,0,.878.878,0,1,0-1.745,0" transform="translate(-137.635 -89.324)" fill="#c6aa76"/>
        <path id="Path_127137" data-name="Path 127137" d="M298.205,130.816l.063.118-.063.118a4.584,4.584,0,0,1-4.005,2.585h-.3v.913h6.741v-.125a8.336,8.336,0,0,0-.756-3.39l-.047-.108.053-.1a7.28,7.28,0,0,0,.751-3.2v-4.3l-1.5.464v3.836a7.56,7.56,0,0,1-.106,1.123l-.094.571-.352-.46a19.5,19.5,0,0,0-1.756-2.027,14.311,14.311,0,0,0-4.544-3.422l-.048-.021-.551.916.053.03a16.664,16.664,0,0,1,6.467,6.487m-1.7,2.82.772-.516a6.1,6.1,0,0,0,1.178-.943l.295-.318.128.414a5.248,5.248,0,0,1,.149.635,2.6,2.6,0,0,0,.093.393l.119.334Z" transform="translate(-213.667 -90.334)" fill="#c6aa76"/>
        <path id="Path_127138" data-name="Path 127138" d="M337.363,123.326l-1.463.461v10.768h1.463Z" transform="translate(-246.056 -90.34)" fill="#c6aa76"/>
        <path id="Path_127139" data-name="Path 127139" d="M368.476,138.493l-.141.852c-.108.4-.645.506-1.332.639a5.491,5.491,0,0,0-1.025.261,2.106,2.106,0,0,0-1.261,1.958v5.686l1.443-.476.02-5.366a.974.974,0,0,1,.848-.95l.157-.045a5.92,5.92,0,0,1,1.3-.271l.194-.01.057.186a4.395,4.395,0,0,0,4.261,3.27,3.434,3.434,0,0,0,3.513-3.661c0-2.753-1.526-4.036-4.8-4.036-1.777,0-3.015.751-3.232,1.96m3.17-1.047c1.972,0,3.1.787,3.347,2.338a4.538,4.538,0,0,1,.054.718,5.426,5.426,0,0,1-.237,1.4,1.821,1.821,0,0,1-1.793,1.412c-2.166,0-3.135-2.09-3.135-4.161a1.684,1.684,0,0,1,1.764-1.709" transform="translate(-267.164 -100.014)" fill="#c6aa76"/>
        <path id="Path_127140" data-name="Path 127140" d="M477.19,134.344l.071-.024.072.019a6.209,6.209,0,0,0,1.615.213H491.1a2.449,2.449,0,0,0,1.5-.545l.167-.128.155.141a2.155,2.155,0,0,0,1.406.531h3.538a2.131,2.131,0,0,0,2.164-2.091v-9.138l-1.483.463v8.985a.889.889,0,0,1-.925.869h-3.252a.83.83,0,0,1-.905-.8v-9.514l-1.483.463v9.051a.872.872,0,0,1-.926.8H479.031l.558-.446a3.734,3.734,0,0,0,1.379-3.163c0-1.986-1.6-3.219-4.168-3.219-3.143,0-4.925,2.772-5.546,3.964l-.044.085h.1a4.327,4.327,0,0,1,3.546,1.667l.023.024c.083.1.155.191.229.286.1.122.2.252.312.387l.346.412H439.87a.83.83,0,0,1-.905-.8v-9.514l-1.484.463v9.051a.872.872,0,0,1-.925.8H424.729V126.59h-1.677l-.263.021a5.161,5.161,0,0,0-4.923,4.965c0,2.469,1.7,2.976,4.25,2.976h1.11V135a2.51,2.51,0,0,1-1.23,2.06l-.951.489.464.71,1.314-.633a3.189,3.189,0,0,0,1.885-2.838l.014-.236H436.6a2.449,2.449,0,0,0,1.5-.545l.167-.128.155.141a2.156,2.156,0,0,0,1.406.531h35.928a5.5,5.5,0,0,0,1.434-.208m-1.119-2.479a4.524,4.524,0,0,0-2.645-1.857l-.348-.084.2-.3a4.419,4.419,0,0,1,3.522-1.9c2.649,0,2.726,2.069,2.726,2.305a4.965,4.965,0,0,1-.095,1,3.456,3.456,0,0,1-.155.531c-.03.078-.064.155-.1.229a3.171,3.171,0,0,1-1.5,1.4l-.126.067-.122-.075a5.681,5.681,0,0,1-1.354-1.317m-52.847-4.317v6.091h-1.048c-.911,0-2.807,0-2.807-2.062a3.844,3.844,0,0,1,3.4-4.028Z" transform="translate(-306.097 -90.337)" fill="#c6aa76"/>
        <path id="Path_127141" data-name="Path 127141" d="M292.727,111.913h3.057V111.3h-.491c-1.127,0-1.372-.549-1.372-1.049s.413-1.04,1.372-1.04h.078l-.145-.626h-.2a1.871,1.871,0,0,0-2.086,1.666,1.481,1.481,0,0,0,.4,1.049h-.435Z" transform="translate(-214.43 -79.539)" fill="#c6aa76"/>
        <path id="Path_127142" data-name="Path 127142" d="M577.4,336.346h2.983v-.568H577.4v-2.166h3.16v-.568h-4.071v6.367h4.2v-.592H577.4Z" transform="translate(-422.295 -243.964)" fill="#c6aa76"/>
        <path id="Path_127143" data-name="Path 127143" d="M599.178,342.219h0c-.474-.172-.715-.377-.715-.611a.657.657,0,0,1,.686-.651.8.8,0,0,1,.645.267l.051.059.776-.254-.1-.132a1.739,1.739,0,0,0-1.385-.509c-.934,0-1.586.5-1.586,1.219,0,.805.754,1.119,1.252,1.326l.145.061c.713.3.8.524.8.684a.652.652,0,0,1-.687.674,1.14,1.14,0,0,1-.83-.358l-.044-.041-.919.17.265.266a2.049,2.049,0,0,0,1.515.52c1.264,0,1.6-.805,1.6-1.231,0-.276-.144-.972-1.474-1.46" transform="translate(-437.519 -249.344)" fill="#c6aa76"/>
        <path id="Path_127144" data-name="Path 127144" d="M616.343,341.07a.541.541,0,0,1-.624-.024.694.694,0,0,1-.167-.437l.011-2.829h1.078v-.568h-1.077v-1.16h-.911v1.16h-.805v.568h.805v2.831a1.135,1.135,0,0,0,1.112,1.122,2.237,2.237,0,0,0,.741-.118h.14l-.179-.6Z" transform="translate(-449.66 -246.168)" fill="#c6aa76"/>
        <path id="Path_127145" data-name="Path 127145" d="M631.049,352.6a.6.6,0,1,0,.6.6.6.6,0,0,0-.6-.6" transform="translate(-461.818 -258.291)" fill="#c6aa76"/>
        <path id="Path_127146" data-name="Path 127146" d="M651.521,335.029l.822.326.667-.521v5.084h.876v-6.166h-.739Z" transform="translate(-477.257 -244.482)" fill="#c6aa76"/>
        <path id="Path_127147" data-name="Path 127147" d="M668.283,333.4h-.248a1.931,1.931,0,0,0-2.047,1.929,1.91,1.91,0,0,0,1.976,1.929h.249a2.418,2.418,0,0,0,.4-.034l-1.536,2.436h1l1.7-2.754a2.921,2.921,0,0,0,.539-1.578,1.968,1.968,0,0,0-2.036-1.929m1.148,1.929a1.333,1.333,0,0,1-1.338,1.326,1.281,1.281,0,0,1-1.219-1.326,1.209,1.209,0,0,1,1.008-1.293,1.27,1.27,0,0,1,.282-.032,1.3,1.3,0,0,1,1.267,1.326" transform="translate(-487.854 -244.223)" fill="#c6aa76"/>
        <path id="Path_127148" data-name="Path 127148" d="M688.029,334.355h3.034l-2.592,5.562h.948l2.611-5.652.012-.513h-4.012Z" transform="translate(-504 -244.482)" fill="#c6aa76"/>
        <path id="Path_127149" data-name="Path 127149" d="M711.691,336.354a1.608,1.608,0,0,0-1.049-2.956h-.272a1.6,1.6,0,0,0-1.034,2.949,1.768,1.768,0,0,0-.99,1.573,1.862,1.862,0,0,0,2.024,1.834h.272a1.841,1.841,0,0,0,2.024-1.834,1.737,1.737,0,0,0-.974-1.566m-1.18.311a1.3,1.3,0,0,1,1.278,1.255,1.269,1.269,0,0,1-1.278,1.254,1.255,1.255,0,1,1,0-2.509m0-.592a1.076,1.076,0,0,1-1.054-1.053A1.025,1.025,0,0,1,710.512,334a1.115,1.115,0,0,1,.714.277.962.962,0,0,1,.328.741,1.066,1.066,0,0,1-1.042,1.053" transform="translate(-518.883 -244.223)" fill="#c6aa76"/>
        <path id="Path_127150" data-name="Path 127150" d="M212.5,334.716a.552.552,0,0,0,.564-.552.564.564,0,0,0-.564-.564.552.552,0,0,0-.552.564.546.546,0,0,0,.552.552" transform="translate(-155.256 -244.371)" fill="#c6aa76"/>
        <path id="Path_127151" data-name="Path 127151" d="M217.635,333.6a.552.552,0,0,0-.552.564.546.546,0,0,0,.552.552.552.552,0,0,0,.564-.552.564.564,0,0,0-.564-.564" transform="translate(-159.019 -244.371)" fill="#c6aa76"/>
        <path id="Path_127152" data-name="Path 127152" d="M122.038,336.291a.552.552,0,0,0,.564-.552.564.564,0,0,0-.564-.564.552.552,0,0,0-.552.564.546.546,0,0,0,.552.552" transform="translate(-88.992 -245.525)" fill="#c6aa76"/>
        <path id="Path_127153" data-name="Path 127153" d="M128.059,336.291a.552.552,0,0,0,.564-.552.564.564,0,0,0-.564-.564.552.552,0,0,0-.552.564.546.546,0,0,0,.552.552" transform="translate(-93.402 -245.525)" fill="#c6aa76"/>
        <path id="Path_127154" data-name="Path 127154" d="M1.169,333.282l-.862.335.018.1a34.162,34.162,0,0,1,.341,5.849v.118h.911v-.97A28.445,28.445,0,0,0,1.2,333.42Z" transform="translate(-0.225 -244.138)" fill="#c6aa76"/>
        <path id="Path_127155" data-name="Path 127155" d="M17.058,334.324a1.465,1.465,0,0,0-1.372-.881H15.5A2.034,2.034,0,0,0,13.6,335.5c0,1.082.64,1.586,2.012,1.586h.2a4.61,4.61,0,0,0,.871-.093l.054,1.16c.033.716.054,1.17.071,1.473l.028.171h.924l-.074-1.152c-.146-3.188-.154-3.378-.632-4.323m-.406,1.953a2.864,2.864,0,0,1-.954.256,1.09,1.09,0,0,1-1.2-1.077c0-1.352.9-1.421,1.077-1.421.814,0,1.02,1.5,1.072,2.242" transform="translate(-9.965 -244.256)" fill="#c6aa76"/>
        <path id="Path_127156" data-name="Path 127156" d="M41.309,333.51a26.85,26.85,0,0,0-1.816,4.635,25.642,25.642,0,0,0-1.758-4.635l-.032-.067H36.687l.09.173a23.442,23.442,0,0,1,2.13,6.084l.016.1h1.025l.021-.092a27.409,27.409,0,0,1,2.263-6.093l.086-.171h-.976Z" transform="translate(-26.874 -244.256)" fill="#c6aa76"/>
        <path id="Path_127157" data-name="Path 127157" d="M66.776,333.532l-.022-.089h-.906l-.022.089a38.155,38.155,0,0,1-2.195,6.1l-.075.167h.994l.031-.071a39.567,39.567,0,0,0,1.715-4.613,37.676,37.676,0,0,0,1.726,4.614l.031.071h.994l-.075-.167a38.207,38.207,0,0,1-2.195-6.1" transform="translate(-46.556 -244.256)" fill="#c6aa76"/>
        <path id="Path_127158" data-name="Path 127158" d="M129.6,343.247a.48.48,0,0,1-.5.473h-.355a.475.475,0,0,1-.5-.473V339.6l-.923.3v3.341a.481.481,0,0,1-.509.473h-.8a.464.464,0,0,1-.485-.473v-3.631l-.935.3v3.329a.469.469,0,0,1-.486.473h-1.516a.469.469,0,0,1-.486-.473V339.6l-.923.3v3.341a.482.482,0,0,1-.509.473h-.355a.464.464,0,0,1-.485-.473v-3.642l-.947.3v3.342a.468.468,0,0,1-.474.473h-.8a.493.493,0,0,1-.521-.473v-3.634l-.9.306v3.328a.493.493,0,0,1-.521.473h-1.351a.492.492,0,0,1-.5-.485v-3.629l-.923.286v3.343a.492.492,0,0,1-.5.485h-4.332c-.46,0-.509-.513-.509-.734a3.482,3.482,0,0,1,.861-2.21,1.4,1.4,0,0,1,1.092-.548h.25l-.16-.58h-.09a2.423,2.423,0,0,0-1.643.623,3.543,3.543,0,0,0-1.221,2.525,1.411,1.411,0,0,0,1.4,1.515h4.509a1.279,1.279,0,0,0,.8-.326,1.252,1.252,0,0,0,.807.326h1.528a1.412,1.412,0,0,0,.955-.353,1.344,1.344,0,0,0,.938.353h.852a1.33,1.33,0,0,0,.922-.352,1.347,1.347,0,0,0,.925.352h.45a1.285,1.285,0,0,0,.9-.35,1.37,1.37,0,0,0,.932.35h1.564a1.312,1.312,0,0,0,.925-.354,1.358,1.358,0,0,0,.921.354h.876a1.347,1.347,0,0,0,.925-.352,1.371,1.371,0,0,0,.934.352h.44a1.373,1.373,0,0,0,1.371-1.373V339.6l-.923.3Z" transform="translate(-78.117 -248.769)" fill="#c6aa76"/>
        <path id="Path_127159" data-name="Path 127159" d="M205.417,337.529a.492.492,0,0,1-.5.486h-1.255a.492.492,0,0,1-.5-.486v-5.715l-.923.3v5.222a1.268,1.268,0,0,0,1.267,1.267h1.563a1.268,1.268,0,0,0,1.266-1.267v-3.454l-.923.3Z" transform="translate(-148.149 -243.063)" fill="#c6aa76"/>
        <path id="Path_127160" data-name="Path 127160" d="M202.936,327.171l-.437-.217a.149.149,0,0,1-.133.139c-.092.014-.209-.122-.236-.3-.014-.093,0-.32.126-.34.07-.011.148.037.194.184l.36-.127a.615.615,0,0,0-.6-.227c-.417.065-.6.365-.562.586a.359.359,0,0,0,.2.3l-.278.043.005.343,1.043-.161a.509.509,0,0,0,.321-.228" transform="translate(-147.653 -239.007)" fill="#c6aa76"/>
      </g>
    </g>
  </g>
</svg>
